<?xml version="1.0" standalone="no"?>
<!DOCTYPE svg PUBLIC "-//W3C//DTD SVG 20010904//EN"
 "http://www.w3.org/TR/2001/REC-SVG-20010904/DTD/svg10.dtd">
<svg version="1.0" xmlns="http://www.w3.org/2000/svg"
 width="550.000000pt" height="550.000000pt" viewBox="0 0 550.000000 550.000000"
 preserveAspectRatio="xMidYMid meet">
<metadata>
Created by potrace 1.11, written by Peter Selinger 2001-2013
</metadata>
<g transform="translate(0.000000,550.000000) scale(0.100000,-0.100000)"
fill="#000000" stroke="none">
<path d="M0 2750 l0 -2750 2750 0 2750 0 0 2750 0 2750 -2750 0 -2750 0 0
-2750z m3171 1053 c126 -160 478 -593 482 -593 1 0 0 162 -2 360 l-3 360 133
0 134 0 0 -539 0 -539 -90 -37 c-49 -20 -95 -39 -101 -42 -7 -2 -69 71 -139
164 -151 198 -467 594 -491 614 -16 13 -17 -11 -10 -373 l7 -388 -135 0 -135
0 2 542 2 542 105 42 c58 24 108 43 111 44 3 0 62 -71 130 -157z m1936 102
c101 -42 111 -49 100 -64 -6 -9 -94 -119 -194 -243 l-183 -227 198 -226 c108
-125 205 -237 214 -250 l18 -22 -126 -52 c-69 -29 -127 -51 -128 -49 -15 24
-272 328 -369 436 -76 86 -124 148 -120 155 4 7 62 82 128 167 67 85 168 217
225 293 57 76 108 136 114 134 6 -3 62 -26 123 -52z m-4175 -3 c152 -41 246
-110 300 -220 30 -60 33 -75 33 -157 0 -82 -3 -97 -32 -156 -76 -154 -229
-235 -480 -255 l-83 -7 0 -158 0 -159 -144 0 -143 0 0 571 -1 571 237 -5 c195
-4 249 -8 313 -25z m818 -344 c0 -230 4 -388 11 -411 13 -47 60 -102 110 -127
90 -46 233 -34 299 27 73 65 75 79 75 506 l0 377 142 0 143 0 0 -367 c0 -207
-5 -396 -11 -432 -29 -179 -167 -314 -364 -356 -146 -31 -328 -13 -441 42 -69
34 -156 110 -189 167 -50 88 -54 122 -57 549 l-3 397 143 0 142 0 0 -372z
m2757 -198 l-1 -570 -143 0 -142 0 0 570 0 570 143 0 143 0 0 -570z m-2066
-1320 c44 -139 81 -255 83 -257 2 -2 39 103 83 234 l80 238 82 0 82 0 78 -235
c75 -224 79 -234 90 -205 7 17 44 131 83 255 39 124 72 226 73 228 4 5 159
-40 169 -49 4 -4 -43 -157 -107 -341 -63 -183 -119 -346 -124 -363 -10 -30
-10 -30 -94 -33 l-84 -3 -69 201 c-38 111 -76 221 -85 246 l-18 45 -46 -128
c-25 -70 -65 -181 -88 -246 l-41 -118 -86 3 -85 3 -69 205 c-37 113 -93 276
-124 363 -31 87 -54 160 -53 161 8 7 174 54 183 52 4 -1 44 -116 87 -256z
m1601 -119 c87 -201 156 -366 155 -367 -6 -5 -190 -55 -192 -52 -1 2 -14 35
-28 73 -14 39 -33 89 -42 113 l-17 43 -146 -3 -145 -3 -41 -110 c-22 -60 -41
-111 -42 -113 -1 -2 -43 9 -93 25 l-90 28 161 368 161 368 101 -3 100 -3 158
-364z m-2135 335 c125 -40 203 -133 203 -245 0 -63 -26 -130 -68 -174 -54 -58
-191 -106 -299 -107 l-43 0 0 -110 0 -110 -95 0 -95 0 0 386 0 387 173 -6
c118 -3 188 -10 224 -21z"/>
<path d="M657 3670 c-4 -35 -7 -137 -7 -228 l0 -165 78 7 c92 8 170 42 207 90
62 82 51 222 -22 286 -50 44 -90 59 -176 66 l-74 7 -6 -63z"/>
<path d="M3730 1993 c-24 -65 -45 -124 -48 -130 -3 -10 19 -13 92 -13 53 0 96
2 96 5 0 5 -91 249 -94 252 -2 2 -22 -50 -46 -114z"/>
<path d="M1700 1990 l0 -153 50 6 c106 13 160 62 160 147 0 86 -54 137 -156
147 l-54 6 0 -153z"/>
</g>
</svg>
